<svg xmlns="http://www.w3.org/2000/svg" viewBox="0 0 32 32">! Font Awesome Pro 6.4.2 by @fontawesome - https://fontawesome.com License - https://fontawesome.com/license (Commercial License) Copyright 2023 Fonticons, Inc.
<path d="M31.5903 16.5604L14.6711 1.78727C12.8581 0.20421 9.92095 0.20421 8.10792 1.78727L2.30622 6.85307C1.43596 7.61294 0.950073 8.64509 0.950073 9.72157V16.3894V16.9847L0.950073 30.5737C0.950073 31.6945 1.98713 32.6 3.27075 32.6C4.55438 32.6 5.59143 31.6945 5.59143 30.5737L5.59143 22.7153L15.0627 30.9916C16.8757 32.5746 19.8128 32.5746 21.6259 30.9916L31.5903 22.2974C33.4033 20.7144 33.4033 18.1498 31.5903 16.5667V16.5604ZM5.58418 16.9847V16.3894L5.58418 9.71524L11.3859 4.64945L20.4293 12.5458L10.4649 21.2463L5.58418 16.9847Z" fill="black"/>
</svg>
